<?xml version="1.0" encoding="utf-8"?>
<!-- Generator: Adobe Illustrator 16.0.3, SVG Export Plug-In . SVG Version: 6.00 Build 0)  -->
<!DOCTYPE svg PUBLIC "-//W3C//DTD SVG 1.1//EN" "http://www.w3.org/Graphics/SVG/1.1/DTD/svg11.dtd">
<svg version="1.1" id="Capa_2" xmlns="http://www.w3.org/2000/svg" xmlns:xlink="http://www.w3.org/1999/xlink" x="0px" y="0px"
	 width="189.592px" height="167.861px" viewBox="0 0 189.592 167.861" enable-background="new 0 0 189.592 167.861"
	 xml:space="preserve">
<g>
	<circle fill="none" cx="75.689" cy="75.688" r="48.161"/>
	<path fill="#FFFFFF" d="M189.592,142.523l-45.659-34.063c4.771-9.916,7.444-21.032,7.444-32.771C151.377,33.887,117.49,0,75.689,0
		C33.887,0,0,33.887,0,75.688s33.887,75.689,75.689,75.689c18.639,0,35.692-6.75,48.882-17.922l46.116,34.405L189.592,142.523z
		 M75.689,123.849c-26.601,0-48.163-21.562-48.163-48.161s21.562-48.162,48.163-48.162c26.599,0,48.161,21.563,48.161,48.162
		S102.288,123.849,75.689,123.849z"/>
</g>
</svg>
